<?xml version="1.0" encoding="UTF-8" standalone="no"?><svg xmlns="http://www.w3.org/2000/svg" xmlns:xlink="http://www.w3.org/1999/xlink" clip-rule="evenodd" stroke-miterlimit="4.00" viewBox="0 0 1920 1080"><desc>SVG generated by Keynote</desc><defs><pattern id="82D965EE-4279-4F66-A8B8-B76C7E5E963D" patternUnits="userSpaceOnUse" width="508" height="508" viewBox="0 0 508 508" patternTransform="matrix(0.590551, 0.000000, 0.000000, -0.590551, 235.214300, 815.135700)"><image xlink:href="../../922DFB51-884F-4E0A-9BCD-6FDADB22E061/assets/3BAD48E39BFF415BE33E9CD33DD9D465.jpeg" width="508.00" height="508.00"></image></pattern><pattern id="CF376592-D250-4307-9065-11EF5D603FB9" patternUnits="userSpaceOnUse" width="508" height="508" viewBox="0 0 508 508" patternTransform="matrix(0.590551, 0.000000, 0.000000, -0.590551, 708.045300, 815.135700)"><image xlink:href="../../922DFB51-884F-4E0A-9BCD-6FDADB22E061/assets/3BAD48E39BFF415BE33E9CD33DD9D465.jpeg" width="508.00" height="508.00"></image></pattern></defs><g transform="matrix(1.00, 0.00, -0.00, -1.00, 0.0, 1080.0)"><path d="M 0.0 1080.0 L 1920.0 1080.0 L 1920.0 0.0 L 0.0 0.0 Z M 0.0 1080.0 " fill="#FEFFFF"></path><g><clipPath id="clip-248"><path d="M 230.2 301.1 L 679.6 301.1 L 679.6 818.1 L 230.2 818.1 Z M 230.2 301.1 "></path></clipPath><g clip-path="url(#clip-248)"><image xlink:href="../../922DFB51-884F-4E0A-9BCD-6FDADB22E061/assets/A11970F480D71DADBB663F1DC50B5B04.png" width="447.00" height="515.00" transform="matrix(1.00, 0.00, -0.00, -1.00, 231.2, 817.1)" opacity="0.50"></image></g></g><g><clipPath id="clip-249"><path d="M 235.2 815.1 L 674.6 815.1 L 674.6 308.1 L 235.2 308.1 Z M 235.2 815.1 "></path></clipPath><g clip-path="url(#clip-249)"><g><clipPath id="clip-250"><path d="M 230.2 301.1 L 679.6 301.1 L 679.6 818.1 L 230.2 818.1 Z M 230.2 301.1 "></path></clipPath><g clip-path="url(#clip-250)"><path d="M 235.2 308.1 L 674.6 308.1 L 674.6 815.1 L 235.2 815.1 Z M 235.2 308.1 " fill="url(#82D965EE-4279-4F66-A8B8-B76C7E5E963D)"></path><path d="M 235.2 815.1 L 674.6 815.1 L 674.6 308.1 L 235.2 308.1 Z M 235.2 815.1 " fill="#009BFC" fill-opacity="0.50"></path></g></g></g></g><g><clipPath id="clip-251"><path d="M 703.0 301.1 L 1152.4 301.1 L 1152.4 818.1 L 703.0 818.1 Z M 703.0 301.1 "></path></clipPath><g clip-path="url(#clip-251)"><image xlink:href="../../922DFB51-884F-4E0A-9BCD-6FDADB22E061/assets/A11970F480D71DADBB663F1DC50B5B04.png" width="447.00" height="515.00" transform="matrix(1.00, 0.00, -0.00, -1.00, 704.0, 817.1)" opacity="0.50"></image></g></g><g><clipPath id="clip-252"><path d="M 708.0 815.1 L 1147.4 815.1 L 1147.4 308.1 L 708.0 308.1 Z M 708.0 815.1 "></path></clipPath><g clip-path="url(#clip-252)"><g><clipPath id="clip-253"><path d="M 703.0 301.1 L 1152.4 301.1 L 1152.4 818.1 L 703.0 818.1 Z M 703.0 301.1 "></path></clipPath><g clip-path="url(#clip-253)"><path d="M 708.0 308.1 L 1147.4 308.1 L 1147.4 815.1 L 708.0 815.1 Z M 708.0 308.1 " fill="url(#CF376592-D250-4307-9065-11EF5D603FB9)"></path><path d="M 708.0 815.1 L 1147.4 815.1 L 1147.4 308.1 L 708.0 308.1 Z M 708.0 815.1 " fill="#009BFC" fill-opacity="0.50"></path></g></g></g></g><g><clipPath id="clip-254"><path d="M 346.5 672.9 L 563.3 672.9 L 563.3 788.9 L 346.5 788.9 Z M 346.5 672.9 "></path></clipPath><g clip-path="url(#clip-254)"><text xml:space="preserve" font-family="Helvetica-Light" font-size="50.0" fill="#000000" transform="matrix(1.00, 0.00, -0.00, -1.00, 398.0, 713.0)">F</text><text xml:space="preserve" font-family="Helvetica-Light" font-size="50.0" fill="#000000" transform="matrix(1.00, 0.00, -0.00, -1.00, 425.8, 713.0)">I</text><text xml:space="preserve" font-family="Helvetica-Light" font-size="50.0" fill="#000000" transform="matrix(1.00, 0.00, -0.00, -1.00, 439.7, 713.0)">N</text><text xml:space="preserve" font-family="Helvetica-Light" font-size="50.0" fill="#000000" transform="matrix(1.00, 0.00, -0.00, -1.00, 475.8, 713.0)">D</text></g></g><g><clipPath id="clip-255"><path d="M 787.6 633.1 L 1067.9 633.1 L 1067.9 805.1 L 787.6 805.1 Z M 787.6 633.1 "></path></clipPath><g clip-path="url(#clip-255)"><text xml:space="preserve" font-family="Helvetica-Light" font-size="50.0" fill="#000000" transform="matrix(1.00, 0.00, -0.00, -1.00, 861.0, 731.0)">V</text><text xml:space="preserve" font-family="Helvetica-Light" font-size="50.0" fill="#000000" transform="matrix(1.00, 0.00, -0.00, -1.00, 891.5, 731.0)">I</text><text xml:space="preserve" font-family="Helvetica-Light" font-size="50.0" fill="#000000" transform="matrix(1.00, 0.00, -0.00, -1.00, 905.5, 731.0)">E</text><text xml:space="preserve" font-family="Helvetica-Light" font-size="50.0" fill="#000000" transform="matrix(1.00, 0.00, -0.00, -1.00, 936.0, 731.0)">W</text><text xml:space="preserve" font-family="Helvetica-Light" font-size="50.0" fill="#000000" transform="matrix(1.00, 0.00, -0.00, -1.00, 980.5, 731.0)">/</text><text xml:space="preserve" font-family="Helvetica-Light" font-size="50.0" fill="#000000" transform="matrix(1.00, 0.00, -0.00, -1.00, 994.4, 731.0)"> </text><text xml:space="preserve" font-family="Helvetica-Light" font-size="50.0" fill="#000000" transform="matrix(1.00, 0.00, -0.00, -1.00, 836.0, 671.0)">S</text><text xml:space="preserve" font-family="Helvetica-Light" font-size="50.0" fill="#000000" transform="matrix(1.00, 0.00, -0.00, -1.00, 866.5, 671.0)">E</text><text xml:space="preserve" font-family="Helvetica-Light" font-size="50.0" fill="#000000" transform="matrix(1.00, 0.00, -0.00, -1.00, 897.1, 671.0)">L</text><text xml:space="preserve" font-family="Helvetica-Light" font-size="50.0" fill="#000000" transform="matrix(1.00, 0.00, -0.00, -1.00, 924.9, 671.0)">E</text><text xml:space="preserve" font-family="Helvetica-Light" font-size="50.0" fill="#000000" transform="matrix(1.00, 0.00, -0.00, -1.00, 955.5, 671.0)">C</text><text xml:space="preserve" font-family="Helvetica-Light" font-size="50.0" fill="#000000" transform="matrix(1.00, 0.00, -0.00, -1.00, 991.5, 671.0)">T</text></g></g><path d="M 0.0 0.0 L 439.3 0.0 L 439.3 507.0 L 0.0 507.0 Z M 0.0 0.0 " fill="none" stroke="#000000" stroke-width="4.00" stroke-dasharray="8.0, 8.0" transform="matrix(1.00, 0.00, 0.00, -1.00, 1245.8, 813.1)"></path><path d="M 0.0 0.0 L 1010.6 0.0 L 1010.6 602.6 L 0.0 602.6 Z M 0.0 0.0 " fill="none" stroke="#000000" stroke-width="2.00" transform="matrix(1.00, 0.00, 0.00, -1.00, 186.0, 862.9)"></path><text xml:space="preserve" font-family="Helvetica-Light" font-size="50.0" fill="#000000" transform="matrix(1.00, 0.00, -0.00, -1.00, 1352.0, 736.0)">C</text><text xml:space="preserve" font-family="Helvetica-Light" font-size="50.0" fill="#000000" transform="matrix(1.00, 0.00, -0.00, -1.00, 1388.1, 736.0)">O</text><text xml:space="preserve" font-family="Helvetica-Light" font-size="50.0" fill="#000000" transform="matrix(1.00, 0.00, -0.00, -1.00, 1427.0, 736.0)">N</text><text xml:space="preserve" font-family="Helvetica-Light" font-size="50.0" fill="#000000" transform="matrix(1.00, 0.00, -0.00, -1.00, 1463.1, 736.0)">F</text><text xml:space="preserve" font-family="Helvetica-Light" font-size="50.0" fill="#000000" transform="matrix(1.00, 0.00, -0.00, -1.00, 1490.9, 736.0)">I</text><text xml:space="preserve" font-family="Helvetica-Light" font-size="50.0" fill="#000000" transform="matrix(1.00, 0.00, -0.00, -1.00, 1504.8, 736.0)">R</text><text xml:space="preserve" font-family="Helvetica-Light" font-size="50.0" fill="#000000" transform="matrix(1.00, 0.00, -0.00, -1.00, 1538.2, 736.0)">M</text></g></svg>