<?xml version="1.0" encoding="utf-8"?>
<!-- Generator: Adobe Illustrator 16.2.1, SVG Export Plug-In . SVG Version: 6.00 Build 0)  -->
<!DOCTYPE svg PUBLIC "-//W3C//DTD SVG 1.1//EN" "http://www.w3.org/Graphics/SVG/1.1/DTD/svg11.dtd">
<svg version="1.1" id="Layer_1" xmlns="http://www.w3.org/2000/svg" xmlns:xlink="http://www.w3.org/1999/xlink" x="0px" y="0px"
	 width="165px" height="165px" viewBox="0 0 165 165" enable-background="new 0 0 165 165" xml:space="preserve">
<g>
	<g>
		<circle fill="none" stroke="#010101" stroke-width="8" stroke-miterlimit="10" cx="49.798" cy="46.654" r="21.951"/>
		<path fill="none" stroke="#010101" stroke-width="8" stroke-miterlimit="10" d="M52,138.256c0,2.067-1.094,3.744-2.443,3.744
			h-0.335c-1.349,0-2.222-1.677-2.222-3.744V93.744C47,91.677,47.873,90,49.222,90h0.335C50.906,90,52,91.677,52,93.744V138.256z"/>
	</g>
	<g>
		<circle fill="none" stroke="#010101" stroke-width="8" stroke-miterlimit="10" cx="114.798" cy="117.05" r="21.951"/>
		<path fill="none" stroke="#010101" stroke-width="8" stroke-miterlimit="10" d="M113,25.448c0-2.067,0.689-3.448,2.039-3.448
			h0.335c1.349,0,2.626,1.381,2.626,3.448V69.96c0,2.067-1.277,4.04-2.626,4.04h-0.335c-1.35,0-2.039-1.973-2.039-4.04V25.448z"/>
	</g>
</g>
</svg>
