<?xml version="1.0" encoding="utf-8"?>
<!-- Generator: Adobe Illustrator 16.2.1, SVG Export Plug-In . SVG Version: 6.00 Build 0)  -->
<!DOCTYPE svg PUBLIC "-//W3C//DTD SVG 1.1//EN" "http://www.w3.org/Graphics/SVG/1.1/DTD/svg11.dtd">
<svg version="1.1" id="Layer_1" xmlns="http://www.w3.org/2000/svg" xmlns:xlink="http://www.w3.org/1999/xlink" x="0px" y="0px"
	 width="595.28px" height="841.89px" viewBox="0 0 595.28 841.89" enable-background="new 0 0 595.28 841.89" xml:space="preserve">
<g>
	<path fill-rule="evenodd" clip-rule="evenodd" stroke="#231F20" stroke-width="4" stroke-miterlimit="10" d="M178.88,79.602
		c-0.322-0.217-0.9-0.068-1.361-0.068c-12.552-0.003-25.101-0.026-37.651,0.016c-3.089,0.01-5.928-0.726-8.617-2.199
		c-4.239-2.323-7.902-5.404-10.84-9.184c-5.188-6.682-10.128-13.559-15.171-20.357c-2.339-3.155-4.52-6.436-7.58-8.99
		c-6.463-5.39-13.974-7.717-22.293-7.72c-0.234,0-0.468,0-0.7,0v3.328c1.802,0.017,3.603,0.074,5.384,0.279
		c7.768,0.899,14.323,4.229,19.135,10.499c4.841,6.312,9.572,12.71,14.245,19.146c4.851,6.677,10.06,12.933,17.9,16.734
		c-0.338,0.218-0.477,0.329-0.633,0.405c-5.051,2.461-9.227,6.067-12.627,10.436c-5.908,7.59-11.698,15.278-17.283,23.109
		c-5.728,8.025-13.416,12.439-23.159,12.691c-10.013,0.262-20.037,0.123-30.06,0.08c-0.181,1.112-0.435,2.211-0.782,3.299
		c9.371,0.005,18.742,0.024,28.11-0.025c2.394-0.014,4.815-0.148,7.175-0.531c7.932-1.287,14.616-4.936,19.557-11.315
		c5.01-6.474,9.812-13.109,14.614-19.737c3.246-4.477,6.654-8.766,11.133-12.101c4.071-3.035,8.434-4.81,13.701-4.718
		c12.128,0.213,24.265,0.068,36.398,0.064c0.508,0,1.142,0.137,1.493-0.109c0.53-0.372,1.203-1.033,1.19-1.556
		C180.146,80.562,179.424,79.967,178.88,79.602z"/>
	<path fill-rule="evenodd" clip-rule="evenodd" stroke="#231F20" stroke-width="4" stroke-miterlimit="10" d="M134.14,79.628
		c-0.29-0.192-0.812-0.039-1.228-0.039c-14.168,0-28.335,0-42.501,0c0.029,1.077,0.05,2.154,0.063,3.23
		c14.108,0,28.217,0,42.326-0.003c0.551-0.001,1.237,0.113,1.619-0.162c0.51-0.369,1.114-1.098,1.063-1.612
		C135.434,80.521,134.688,79.991,134.14,79.628z"/>
	
		<circle fill-rule="evenodd" clip-rule="evenodd" fill="none" stroke="#231F20" stroke-width="8" stroke-miterlimit="10" cx="80.807" cy="81.186" r="10.838"/>
	
		<circle fill-rule="evenodd" clip-rule="evenodd" fill="none" stroke="#231F20" stroke-width="8" stroke-miterlimit="10" cx="36.203" cy="129.424" r="10.838"/>
	
		<circle fill-rule="evenodd" clip-rule="evenodd" fill="none" stroke="#231F20" stroke-width="8" stroke-miterlimit="10" cx="63.134" cy="31.1" r="10.837"/>
	<polyline fill="none" stroke="#010101" stroke-width="8" stroke-linecap="round" stroke-miterlimit="10" points="154.152,57.454 
		180.357,81.01 154.152,104.566 	"/>
</g>
</svg>
