<?xml version="1.0" encoding="utf-8"?>
<!-- Generator: Adobe Illustrator 16.0.4, SVG Export Plug-In . SVG Version: 6.00 Build 0)  -->
<!DOCTYPE svg PUBLIC "-//W3C//DTD SVG 1.1//EN" "http://www.w3.org/Graphics/SVG/1.1/DTD/svg11.dtd">
<svg version="1.1" id="Layer_1" xmlns="http://www.w3.org/2000/svg" xmlns:xlink="http://www.w3.org/1999/xlink" x="0px" y="0px"
	 width="50px" height="50px" viewBox="0 0 50 50" enable-background="new 0 0 50 50" xml:space="preserve">
<g>
	<path fill-rule="evenodd" clip-rule="evenodd" d="M9.686,40.854c0.06-0.37,0.095-0.747,0.184-1.109
		c0.89-3.637,3.072-6.034,6.757-6.937c0.578-0.141,1.206-0.111,1.809-0.104c0.459,0.007,0.774-0.142,1.009-0.534
		c2.3-3.824,4.603-7.646,6.908-11.466c3.783-6.265,7.57-12.527,11.355-18.791c0.119-0.195,0.254-0.382,0.381-0.573
		c0.014,0,0.029,0,0.043,0c0.057,0.045,0.107,0.096,0.166,0.134c1.789,1.121,2.527,3.384,1.705,5.326
		c-0.223,0.527-0.537,1.019-0.836,1.512c-3.227,5.356-6.455,10.709-9.693,16.059c-0.234,0.389-0.24,0.722,0.002,1.109
		c0.646,1.026,1.266,2.071,1.898,3.107c0.723,1.188,1.445,2.375,2.176,3.561c0.197,0.322,0.486,0.543,0.873,0.513
		c0.898-0.073,1.781-0.003,2.631,0.28c3.287,1.095,5.217,3.41,6.004,6.738c0.08,0.343,0.125,0.694,0.188,1.041
		c0,0.533,0,1.066,0,1.601c-0.031,0.156-0.066,0.312-0.092,0.471c-0.285,1.78-1.068,3.294-2.5,4.411
		c-2.029,1.584-4.293,1.809-6.666,0.938c-2.248-0.823-3.814-2.414-4.822-4.562c-0.791-1.687-1.051-3.457-0.715-5.3
		c0.186-1.026,0.576-1.97,1.164-2.831c0.188-0.275,0.221-0.532,0.033-0.841c-1.014-1.66-2.012-3.332-3.016-4.998
		c-0.041-0.067-0.086-0.132-0.148-0.227c-0.061,0.095-0.104,0.161-0.145,0.228c-0.365,0.601-0.732,1.2-1.094,1.802
		c-0.618,1.028-1.233,2.056-1.846,3.086c-0.188,0.315-0.218,0.646-0.02,0.967c1.191,1.942,1.549,4.041,1.048,6.249
		c-0.669,2.942-2.365,5.097-5.162,6.304c-1.417,0.612-2.917,0.842-4.426,0.438c-2.741-0.734-4.306-2.618-4.965-5.317
		c-0.087-0.355-0.125-0.723-0.187-1.084C9.686,41.655,9.686,41.255,9.686,40.854z M13.514,41.483
		c0.041,0.322,0.057,0.649,0.129,0.965c0.221,0.966,0.723,1.733,1.66,2.141c0.979,0.424,1.935,0.257,2.84-0.225
		c1.789-0.948,2.899-3.1,2.652-5.112c-0.098-0.799-0.386-1.528-0.998-2.076c-0.91-0.817-1.961-0.898-3.069-0.484
		C14.865,37.389,13.544,39.387,13.514,41.483z M39.445,41.469c-0.02-0.222-0.023-0.444-0.061-0.662
		c-0.309-1.825-1.248-3.201-2.928-4.029c-1.932-0.954-3.861,0.263-4.225,1.975c-0.203,0.948-0.062,1.874,0.258,2.768
		c0.537,1.495,1.486,2.618,3.037,3.133c1.393,0.462,2.709-0.013,3.4-1.209C39.279,42.835,39.445,42.174,39.445,41.469z"/>
	<path fill-rule="evenodd" clip-rule="evenodd" d="M14.885,1.341c1.1,1.808,2.203,3.615,3.3,5.424
		c1.996,3.29,3.986,6.583,5.988,9.871c0.276,0.455,0.284,0.869-0.001,1.324c-0.711,1.135-1.4,2.285-2.098,3.428
		c-0.053,0.087-0.109,0.173-0.182,0.289c-0.126-0.185-0.245-0.343-0.346-0.51c-2.744-4.55-5.489-9.1-8.229-13.651
		c-1.005-1.67-0.899-3.655,0.302-5.1c0.298-0.359,0.701-0.63,1.057-0.94c0.053-0.047,0.111-0.089,0.167-0.134
		C14.856,1.341,14.872,1.341,14.885,1.341z"/>
</g>
</svg>
